<svg xmlns="http://www.w3.org/2000/svg" width="700" height="440">
<rect width="700" height="440" fill="#fafafa" rx="6"/>
<text x="350" y="24" text-anchor="middle" font-size="14" font-weight="bold" font-family="Arial,sans-serif">Mediana cene po lokacijah (top 12)</text>
<line x1="170" y1="390" x2="680" y2="390" stroke="#ccc"/>
<line x1="170" y1="36" x2="170" y2="390" stroke="#ccc"/>
<text x="435" y="434" text-anchor="middle" font-size="11" font-family="Arial">Lokacija</text>
<text x="14" y="220" text-anchor="middle" font-size="10" font-family="Arial" transform="rotate(-90,14,220)">Mediana (€)</text>
<rect x="170.0" y="215.4" width="52.3" height="174.6" fill="#4CAF50" opacity="0.85" rx="2"/>
<text x="196.1" y="402" text-anchor="end" font-size="9" font-family="Arial" transform="rotate(-38,196.1,402)">Radovljica</text>
<text x="196.1" y="211.4" text-anchor="middle" font-size="9" font-family="Arial">14k</text>
<rect x="233.8" y="200.9" width="52.3" height="189.1" fill="#4CAF50" opacity="0.85" rx="2"/>
<text x="259.9" y="402" text-anchor="end" font-size="9" font-family="Arial" transform="rotate(-38,259.9,402)">Studenci</text>
<text x="259.9" y="196.9" text-anchor="middle" font-size="9" font-family="Arial">15k</text>
<rect x="297.5" y="195.9" width="52.3" height="194.1" fill="#4CAF50" opacity="0.85" rx="2"/>
<text x="323.6" y="402" text-anchor="end" font-size="9" font-family="Arial" transform="rotate(-38,323.6,402)">Murska Sobota</text>
<text x="323.6" y="191.9" text-anchor="middle" font-size="9" font-family="Arial">15k</text>
<rect x="361.2" y="183.9" width="52.3" height="206.1" fill="#4CAF50" opacity="0.85" rx="2"/>
<text x="387.4" y="402" text-anchor="end" font-size="9" font-family="Arial" transform="rotate(-38,387.4,402)">Litija</text>
<text x="387.4" y="179.9" text-anchor="middle" font-size="9" font-family="Arial">16k</text>
<rect x="425.0" y="128.5" width="52.3" height="261.5" fill="#4CAF50" opacity="0.85" rx="2"/>
<text x="451.1" y="402" text-anchor="end" font-size="9" font-family="Arial" transform="rotate(-38,451.1,402)">Kamnik</text>
<text x="451.1" y="124.5" text-anchor="middle" font-size="9" font-family="Arial">21k</text>
<rect x="488.8" y="112.7" width="52.3" height="277.3" fill="#4CAF50" opacity="0.85" rx="2"/>
<text x="514.9" y="402" text-anchor="end" font-size="9" font-family="Arial" transform="rotate(-38,514.9,402)">Celje</text>
<text x="514.9" y="108.7" text-anchor="middle" font-size="9" font-family="Arial">22k</text>
<rect x="552.5" y="74.9" width="52.3" height="315.1" fill="#4CAF50" opacity="0.85" rx="2"/>
<text x="578.6" y="402" text-anchor="end" font-size="9" font-family="Arial" transform="rotate(-38,578.6,402)">Kranj</text>
<text x="578.6" y="70.9" text-anchor="middle" font-size="9" font-family="Arial">25k</text>
<rect x="616.2" y="44.0" width="52.3" height="346.0" fill="#4CAF50" opacity="0.85" rx="2"/>
<text x="642.4" y="402" text-anchor="end" font-size="9" font-family="Arial" transform="rotate(-38,642.4,402)">Jesenice</text>
<text x="642.4" y="40.0" text-anchor="middle" font-size="9" font-family="Arial">27k</text>
</svg>