<svg xmlns="http://www.w3.org/2000/svg" width="700" height="440">
<rect width="700" height="440" fill="#fafafa" rx="6"/>
<text x="350" y="24" text-anchor="middle" font-size="14" font-weight="bold" font-family="Arial,sans-serif">Mediana cene po lokacijah (top 12)</text>
<line x1="170" y1="390" x2="680" y2="390" stroke="#ccc"/>
<line x1="170" y1="36" x2="170" y2="390" stroke="#ccc"/>
<text x="435" y="434" text-anchor="middle" font-size="11" font-family="Arial">Lokacija</text>
<text x="14" y="220" text-anchor="middle" font-size="10" font-family="Arial" transform="rotate(-90,14,220)">Mediana (€)</text>
<rect x="170.0" y="170.6" width="34.9" height="219.4" fill="#4CAF50" opacity="0.85" rx="2"/>
<text x="187.4" y="402" text-anchor="end" font-size="9" font-family="Arial" transform="rotate(-38,187.4,402)">Podpeč</text>
<text x="187.4" y="166.6" text-anchor="middle" font-size="9" font-family="Arial">1050k</text>
<rect x="212.5" y="167.6" width="34.9" height="222.4" fill="#4CAF50" opacity="0.85" rx="2"/>
<text x="229.9" y="402" text-anchor="end" font-size="9" font-family="Arial" transform="rotate(-38,229.9,402)">Grinjan</text>
<text x="229.9" y="163.6" text-anchor="middle" font-size="9" font-family="Arial">1064k</text>
<rect x="255.0" y="162.4" width="34.9" height="227.6" fill="#4CAF50" opacity="0.85" rx="2"/>
<text x="272.4" y="402" text-anchor="end" font-size="9" font-family="Arial" transform="rotate(-38,272.4,402)">Zgornja Bela</text>
<text x="272.4" y="158.4" text-anchor="middle" font-size="9" font-family="Arial">1089k</text>
<rect x="297.5" y="147.6" width="34.9" height="242.4" fill="#4CAF50" opacity="0.85" rx="2"/>
<text x="314.9" y="402" text-anchor="end" font-size="9" font-family="Arial" transform="rotate(-38,314.9,402)">Selca</text>
<text x="314.9" y="143.6" text-anchor="middle" font-size="9" font-family="Arial">1160k</text>
<rect x="340.0" y="128.8" width="34.9" height="261.2" fill="#4CAF50" opacity="0.85" rx="2"/>
<text x="357.4" y="402" text-anchor="end" font-size="9" font-family="Arial" transform="rotate(-38,357.4,402)">Štanjel</text>
<text x="357.4" y="124.8" text-anchor="middle" font-size="9" font-family="Arial">1250k</text>
<rect x="382.5" y="116.4" width="34.9" height="273.6" fill="#4CAF50" opacity="0.85" rx="2"/>
<text x="399.9" y="402" text-anchor="end" font-size="9" font-family="Arial" transform="rotate(-38,399.9,402)">Breg</text>
<text x="399.9" y="112.4" text-anchor="middle" font-size="9" font-family="Arial">1310k</text>
<rect x="425.0" y="107.9" width="34.9" height="282.1" fill="#4CAF50" opacity="0.85" rx="2"/>
<text x="442.4" y="402" text-anchor="end" font-size="9" font-family="Arial" transform="rotate(-38,442.4,402)">Srednja Vas V Bohinj</text>
<text x="442.4" y="103.9" text-anchor="middle" font-size="9" font-family="Arial">1350k</text>
<rect x="467.5" y="76.6" width="34.9" height="313.4" fill="#4CAF50" opacity="0.85" rx="2"/>
<text x="484.9" y="402" text-anchor="end" font-size="9" font-family="Arial" transform="rotate(-38,484.9,402)">Jelenče</text>
<text x="484.9" y="72.6" text-anchor="middle" font-size="9" font-family="Arial">1500k</text>
<rect x="510.0" y="64.0" width="34.9" height="326.0" fill="#4CAF50" opacity="0.85" rx="2"/>
<text x="527.4" y="402" text-anchor="end" font-size="9" font-family="Arial" transform="rotate(-38,527.4,402)">Dvorska Vas</text>
<text x="527.4" y="60.0" text-anchor="middle" font-size="9" font-family="Arial">1560k</text>
<rect x="552.5" y="61.8" width="34.9" height="328.2" fill="#4CAF50" opacity="0.85" rx="2"/>
<text x="569.9" y="402" text-anchor="end" font-size="9" font-family="Arial" transform="rotate(-38,569.9,402)">Pragersko</text>
<text x="569.9" y="57.8" text-anchor="middle" font-size="9" font-family="Arial">1571k</text>
<rect x="595.0" y="50.0" width="34.9" height="340.0" fill="#4CAF50" opacity="0.85" rx="2"/>
<text x="612.4" y="402" text-anchor="end" font-size="9" font-family="Arial" transform="rotate(-38,612.4,402)">Korovci</text>
<text x="612.4" y="46.0" text-anchor="middle" font-size="9" font-family="Arial">1627k</text>
<rect x="637.5" y="44.0" width="34.9" height="346.0" fill="#4CAF50" opacity="0.85" rx="2"/>
<text x="654.9" y="402" text-anchor="end" font-size="9" font-family="Arial" transform="rotate(-38,654.9,402)">Dobrovo</text>
<text x="654.9" y="40.0" text-anchor="middle" font-size="9" font-family="Arial">1656k</text>
</svg>