<svg xmlns="http://www.w3.org/2000/svg" width="680" height="400">
<rect width="680" height="400" fill="#fafafa" rx="6"/>
<text x="340" y="24" text-anchor="middle" font-size="14" font-weight="bold" font-family="Arial,sans-serif">Porazdelitev cene na m²</text>
<line x1="60" y1="350" x2="660" y2="350" stroke="#ccc"/>
<line x1="60" y1="36" x2="60" y2="350" stroke="#ccc"/>
<text x="370" y="392" text-anchor="middle" font-size="11" font-family="Arial">€/m²</text>
<line x1="110.8" y1="36" x2="110.8" y2="350" stroke="red" stroke-width="1.5" stroke-dasharray="4,3"/>
<text x="110.8" y="50" text-anchor="middle" font-size="9" fill="red" font-family="Arial">Med 2k</text>
<line x1="121.8" y1="36" x2="121.8" y2="350" stroke="orange" stroke-width="1.5" stroke-dasharray="4,3"/>
<text x="121.8" y="60" text-anchor="middle" font-size="9" fill="darkorange" font-family="Arial">Avg 2k</text>
<rect x="60.0" y="44.0" width="27.0" height="306.0" fill="#FF5722" opacity="0.82" rx="2"/>
<rect x="90.0" y="78.4" width="27.0" height="271.6" fill="#FF5722" opacity="0.82" rx="2"/>
<rect x="120.0" y="147.7" width="27.0" height="202.3" fill="#FF5722" opacity="0.82" rx="2"/>
<rect x="150.0" y="242.6" width="27.0" height="107.4" fill="#FF5722" opacity="0.82" rx="2"/>
<rect x="180.0" y="291.3" width="27.0" height="58.7" fill="#FF5722" opacity="0.82" rx="2"/>
<rect x="210.0" y="327.1" width="27.0" height="22.9" fill="#FF5722" opacity="0.82" rx="2"/>
<rect x="240.0" y="334.4" width="27.0" height="15.6" fill="#FF5722" opacity="0.82" rx="2"/>
<rect x="270.0" y="344.3" width="27.0" height="5.7" fill="#FF5722" opacity="0.82" rx="2"/>
<rect x="300.0" y="346.9" width="27.0" height="3.1" fill="#FF5722" opacity="0.82" rx="2"/>
<rect x="330.0" y="346.1" width="27.0" height="3.9" fill="#FF5722" opacity="0.82" rx="2"/>
<rect x="360.0" y="348.9" width="27.0" height="1.1" fill="#FF5722" opacity="0.82" rx="2"/>
<rect x="390.0" y="349.1" width="27.0" height="0.9" fill="#FF5722" opacity="0.82" rx="2"/>
<rect x="420.0" y="348.4" width="27.0" height="1.6" fill="#FF5722" opacity="0.82" rx="2"/>
<rect x="450.0" y="349.8" width="27.0" height="0.2" fill="#FF5722" opacity="0.82" rx="2"/>
<rect x="480.0" y="349.7" width="27.0" height="0.3" fill="#FF5722" opacity="0.82" rx="2"/>
<rect x="510.0" y="350.0" width="27.0" height="0.0" fill="#FF5722" opacity="0.82" rx="2"/>
<rect x="540.0" y="350.0" width="27.0" height="0.0" fill="#FF5722" opacity="0.82" rx="2"/>
<rect x="570.0" y="350.0" width="27.0" height="0.0" fill="#FF5722" opacity="0.82" rx="2"/>
<rect x="600.0" y="350.0" width="27.0" height="0.0" fill="#FF5722" opacity="0.82" rx="2"/>
<rect x="630.0" y="349.7" width="27.0" height="0.3" fill="#FF5722" opacity="0.82" rx="2"/>
</svg>