<svg xmlns="http://www.w3.org/2000/svg" width="680" height="400">
<rect width="680" height="400" fill="#fafafa" rx="6"/>
<text x="340" y="24" text-anchor="middle" font-size="14" font-weight="bold" font-family="Arial,sans-serif">Porazdelitev cen</text>
<line x1="60" y1="350" x2="660" y2="350" stroke="#ccc"/>
<line x1="60" y1="36" x2="60" y2="350" stroke="#ccc"/>
<text x="370" y="392" text-anchor="middle" font-size="11" font-family="Arial">Cena (€)</text>
<line x1="84.8" y1="36" x2="84.8" y2="350" stroke="red" stroke-width="1.5" stroke-dasharray="4,3"/>
<text x="84.8" y="50" text-anchor="middle" font-size="9" fill="red" font-family="Arial">Med 211k</text>
<line x1="98.4" y1="36" x2="98.4" y2="350" stroke="orange" stroke-width="1.5" stroke-dasharray="4,3"/>
<text x="98.4" y="60" text-anchor="middle" font-size="9" fill="darkorange" font-family="Arial">Avg 324k</text>
<rect x="60.0" y="44.0" width="27.0" height="306.0" fill="#2196F3" opacity="0.82" rx="2"/>
<rect x="90.0" y="209.1" width="27.0" height="140.9" fill="#2196F3" opacity="0.82" rx="2"/>
<rect x="120.0" y="310.2" width="27.0" height="39.8" fill="#2196F3" opacity="0.82" rx="2"/>
<rect x="150.0" y="330.2" width="27.0" height="19.8" fill="#2196F3" opacity="0.82" rx="2"/>
<rect x="180.0" y="342.3" width="27.0" height="7.7" fill="#2196F3" opacity="0.82" rx="2"/>
<rect x="210.0" y="343.4" width="27.0" height="6.6" fill="#2196F3" opacity="0.82" rx="2"/>
<rect x="240.0" y="348.4" width="27.0" height="1.6" fill="#2196F3" opacity="0.82" rx="2"/>
<rect x="270.0" y="347.0" width="27.0" height="3.0" fill="#2196F3" opacity="0.82" rx="2"/>
<rect x="300.0" y="348.9" width="27.0" height="1.1" fill="#2196F3" opacity="0.82" rx="2"/>
<rect x="330.0" y="348.0" width="27.0" height="2.0" fill="#2196F3" opacity="0.82" rx="2"/>
<rect x="360.0" y="349.4" width="27.0" height="0.6" fill="#2196F3" opacity="0.82" rx="2"/>
<rect x="390.0" y="349.2" width="27.0" height="0.8" fill="#2196F3" opacity="0.82" rx="2"/>
<rect x="420.0" y="349.4" width="27.0" height="0.6" fill="#2196F3" opacity="0.82" rx="2"/>
<rect x="450.0" y="349.3" width="27.0" height="0.7" fill="#2196F3" opacity="0.82" rx="2"/>
<rect x="480.0" y="349.8" width="27.0" height="0.2" fill="#2196F3" opacity="0.82" rx="2"/>
<rect x="510.0" y="349.7" width="27.0" height="0.3" fill="#2196F3" opacity="0.82" rx="2"/>
<rect x="540.0" y="349.9" width="27.0" height="0.1" fill="#2196F3" opacity="0.82" rx="2"/>
<rect x="570.0" y="349.9" width="27.0" height="0.1" fill="#2196F3" opacity="0.82" rx="2"/>
<rect x="600.0" y="349.9" width="27.0" height="0.1" fill="#2196F3" opacity="0.82" rx="2"/>
<rect x="630.0" y="349.8" width="27.0" height="0.2" fill="#2196F3" opacity="0.82" rx="2"/>
</svg>