<svg xmlns="http://www.w3.org/2000/svg" width="680" height="400">
<rect width="680" height="400" fill="#fafafa" rx="6"/>
<text x="340" y="24" text-anchor="middle" font-size="14" font-weight="bold" font-family="Arial,sans-serif">Porazdelitev cene na m²</text>
<line x1="60" y1="350" x2="660" y2="350" stroke="#ccc"/>
<line x1="60" y1="36" x2="60" y2="350" stroke="#ccc"/>
<text x="370" y="392" text-anchor="middle" font-size="11" font-family="Arial">€/m²</text>
<line x1="130.9" y1="36" x2="130.9" y2="350" stroke="red" stroke-width="1.5" stroke-dasharray="4,3"/>
<text x="130.9" y="50" text-anchor="middle" font-size="9" fill="red" font-family="Arial">Med 1k</text>
<line x1="149.1" y1="36" x2="149.1" y2="350" stroke="orange" stroke-width="1.5" stroke-dasharray="4,3"/>
<text x="149.1" y="60" text-anchor="middle" font-size="9" fill="darkorange" font-family="Arial">Avg 1k</text>
<rect x="60.0" y="171.5" width="27.0" height="178.5" fill="#FF5722" opacity="0.82" rx="2"/>
<rect x="90.0" y="120.5" width="27.0" height="229.5" fill="#FF5722" opacity="0.82" rx="2"/>
<rect x="120.0" y="146.0" width="27.0" height="204.0" fill="#FF5722" opacity="0.82" rx="2"/>
<rect x="150.0" y="44.0" width="27.0" height="306.0" fill="#FF5722" opacity="0.82" rx="2"/>
<rect x="180.0" y="222.5" width="27.0" height="127.5" fill="#FF5722" opacity="0.82" rx="2"/>
<rect x="210.0" y="350.0" width="27.0" height="0.0" fill="#FF5722" opacity="0.82" rx="2"/>
<rect x="240.0" y="350.0" width="27.0" height="0.0" fill="#FF5722" opacity="0.82" rx="2"/>
<rect x="270.0" y="350.0" width="27.0" height="0.0" fill="#FF5722" opacity="0.82" rx="2"/>
<rect x="300.0" y="324.5" width="27.0" height="25.5" fill="#FF5722" opacity="0.82" rx="2"/>
<rect x="330.0" y="350.0" width="27.0" height="0.0" fill="#FF5722" opacity="0.82" rx="2"/>
<rect x="360.0" y="350.0" width="27.0" height="0.0" fill="#FF5722" opacity="0.82" rx="2"/>
<rect x="390.0" y="350.0" width="27.0" height="0.0" fill="#FF5722" opacity="0.82" rx="2"/>
<rect x="420.0" y="350.0" width="27.0" height="0.0" fill="#FF5722" opacity="0.82" rx="2"/>
<rect x="450.0" y="350.0" width="27.0" height="0.0" fill="#FF5722" opacity="0.82" rx="2"/>
<rect x="480.0" y="350.0" width="27.0" height="0.0" fill="#FF5722" opacity="0.82" rx="2"/>
<rect x="510.0" y="350.0" width="27.0" height="0.0" fill="#FF5722" opacity="0.82" rx="2"/>
<rect x="540.0" y="350.0" width="27.0" height="0.0" fill="#FF5722" opacity="0.82" rx="2"/>
<rect x="570.0" y="350.0" width="27.0" height="0.0" fill="#FF5722" opacity="0.82" rx="2"/>
<rect x="600.0" y="350.0" width="27.0" height="0.0" fill="#FF5722" opacity="0.82" rx="2"/>
<rect x="630.0" y="324.5" width="27.0" height="25.5" fill="#FF5722" opacity="0.82" rx="2"/>
</svg>