<svg xmlns="http://www.w3.org/2000/svg" width="620" height="400">
<rect width="620" height="400" fill="#fafafa" rx="6"/>
<text x="310" y="24" text-anchor="middle" font-size="14" font-weight="bold" font-family="Arial,sans-serif">Leto gradnje vs. Cena  r = -0.084</text>
<line x1="56" y1="344" x2="600" y2="344" stroke="#ccc"/>
<line x1="56" y1="36" x2="56" y2="344" stroke="#ccc"/>
<text x="338" y="392" text-anchor="middle" font-size="11" font-family="Arial">Leto gradnje</text>
<text x="14" y="200" text-anchor="middle" font-size="11" font-family="Arial" transform="rotate(-90,14,200)">Cena (1000 €)</text>
<circle cx="273.6" cy="332.3" r="3.5" fill="#9C27B0" opacity="0.55"/>
<circle cx="476.7" cy="342.9" r="3.5" fill="#9C27B0" opacity="0.55"/>
<circle cx="440.4" cy="335.4" r="3.5" fill="#9C27B0" opacity="0.55"/>
<circle cx="440.4" cy="334.5" r="3.5" fill="#9C27B0" opacity="0.55"/>
<circle cx="440.4" cy="286.2" r="3.5" fill="#9C27B0" opacity="0.55"/>
<circle cx="600.0" cy="338.1" r="3.5" fill="#9C27B0" opacity="0.55"/>
<circle cx="600.0" cy="337.2" r="3.5" fill="#9C27B0" opacity="0.55"/>
<circle cx="469.4" cy="342.1" r="3.5" fill="#9C27B0" opacity="0.55"/>
<circle cx="527.5" cy="89.2" r="3.5" fill="#9C27B0" opacity="0.55"/>
<circle cx="331.6" cy="336.7" r="3.5" fill="#9C27B0" opacity="0.55"/>
<circle cx="143.0" cy="335.4" r="3.5" fill="#9C27B0" opacity="0.55"/>
<circle cx="505.7" cy="339.9" r="3.5" fill="#9C27B0" opacity="0.55"/>
<circle cx="259.1" cy="329.5" r="3.5" fill="#9C27B0" opacity="0.55"/>
<circle cx="186.6" cy="332.3" r="3.5" fill="#9C27B0" opacity="0.55"/>
<circle cx="404.2" cy="321.8" r="3.5" fill="#9C27B0" opacity="0.55"/>
<circle cx="505.7" cy="341.5" r="3.5" fill="#9C27B0" opacity="0.55"/>
<circle cx="513.0" cy="339.7" r="3.5" fill="#9C27B0" opacity="0.55"/>
<circle cx="513.0" cy="339.7" r="3.5" fill="#9C27B0" opacity="0.55"/>
<circle cx="396.9" cy="337.2" r="3.5" fill="#9C27B0" opacity="0.55"/>
<circle cx="498.5" cy="338.6" r="3.5" fill="#9C27B0" opacity="0.55"/>
<circle cx="476.7" cy="344.0" r="3.5" fill="#9C27B0" opacity="0.55"/>
<circle cx="382.4" cy="332.9" r="3.5" fill="#9C27B0" opacity="0.55"/>
<circle cx="476.7" cy="339.7" r="3.5" fill="#9C27B0" opacity="0.55"/>
<circle cx="483.9" cy="343.7" r="3.5" fill="#9C27B0" opacity="0.55"/>
<circle cx="56.0" cy="318.8" r="3.5" fill="#9C27B0" opacity="0.55"/>
<circle cx="592.7" cy="331.8" r="3.5" fill="#9C27B0" opacity="0.55"/>
<circle cx="157.5" cy="209.2" r="3.5" fill="#9C27B0" opacity="0.55"/>
<circle cx="309.9" cy="335.1" r="3.5" fill="#9C27B0" opacity="0.55"/>
<circle cx="201.1" cy="334.2" r="3.5" fill="#9C27B0" opacity="0.55"/>
<circle cx="201.1" cy="336.1" r="3.5" fill="#9C27B0" opacity="0.55"/>
<circle cx="483.9" cy="40.0" r="3.5" fill="#9C27B0" opacity="0.55"/>
<circle cx="273.6" cy="40.0" r="3.5" fill="#9C27B0" opacity="0.55"/>
<circle cx="491.2" cy="337.2" r="3.5" fill="#9C27B0" opacity="0.55"/>
<circle cx="483.9" cy="340.0" r="3.5" fill="#9C27B0" opacity="0.55"/>
<circle cx="592.7" cy="343.4" r="3.5" fill="#9C27B0" opacity="0.55"/>
<circle cx="346.1" cy="46.2" r="3.5" fill="#9C27B0" opacity="0.55"/>
<circle cx="433.2" cy="335.4" r="3.5" fill="#9C27B0" opacity="0.55"/>
<circle cx="309.9" cy="340.3" r="3.5" fill="#9C27B0" opacity="0.55"/>
<circle cx="585.5" cy="340.3" r="3.5" fill="#9C27B0" opacity="0.55"/>
<circle cx="476.7" cy="341.5" r="3.5" fill="#9C27B0" opacity="0.55"/>
<circle cx="600.0" cy="336.7" r="3.5" fill="#9C27B0" opacity="0.55"/>
<circle cx="563.7" cy="338.5" r="3.5" fill="#9C27B0" opacity="0.55"/>
<circle cx="382.4" cy="339.4" r="3.5" fill="#9C27B0" opacity="0.55"/>
<circle cx="353.4" cy="332.9" r="3.5" fill="#9C27B0" opacity="0.55"/>
<circle cx="201.1" cy="335.4" r="3.5" fill="#9C27B0" opacity="0.55"/>
<circle cx="128.5" cy="341.0" r="3.5" fill="#9C27B0" opacity="0.55"/>
<line x1="56.0" y1="291.9" x2="600.0" y2="317.7" stroke="crimson" stroke-width="2" stroke-dasharray="6,3"/>
</svg>